<svg xmlns="http://www.w3.org/2000/svg" width="256" height="256" xml:space="preserve"><g><g style="stroke:none;stroke-width:0;stroke-dasharray:none;stroke-linecap:butt;stroke-linejoin:miter;stroke-miterlimit:10;opacity:1"><path d="M60.835 68H29.166a2.9 2.9 0 0 1-2.897-2.897v-2.956c0-6.757 4.522-12.877 10.997-14.882a2.227 2.227 0 0 0 .907-3.73 9.634 9.634 0 0 1-2.896-6.911v-4.9a9.648 9.648 0 0 1 2.972-6.998c1.916-1.849 4.438-2.802 7.106-2.72 5.167.184 9.37 4.637 9.37 9.927v4.691a9.637 9.637 0 0 1-2.896 6.911 2.228 2.228 0 0 0 .907 3.73c6.475 2.005 10.996 8.125 10.996 14.882v2.956A2.901 2.901 0 0 1 60.835 68zM44.998 24a7.662 7.662 0 0 0-5.361 2.166 7.662 7.662 0 0 0-2.361 5.559v4.9c0 2.076.817 4.024 2.3 5.487a4.214 4.214 0 0 1 1.27 3.02 4.216 4.216 0 0 1-2.99 4.044c-5.646 1.749-9.588 7.083-9.588 12.972v2.956c0 .495.403.897.897.897h31.669a.897.897 0 0 0 .896-.897v-2.956c0-5.889-3.942-11.223-9.588-12.972a4.218 4.218 0 0 1-2.99-4.044c0-1.14.451-2.212 1.271-3.02a7.654 7.654 0 0 0 2.3-5.487v-4.691c0-4.226-3.338-7.782-7.441-7.928a6.727 6.727 0 0 0-.284-.006z" style="stroke:none;stroke-width:1;stroke-dasharray:none;stroke-linecap:butt;stroke-linejoin:miter;stroke-miterlimit:10;opacity:1" transform="translate(1.964 1.964) scale(2.8008)"/><path d="M76.949 90H13.051C5.854 90 0 84.146 0 76.949V13.051C0 5.854 5.854 0 13.051 0h63.898C84.146 0 90 5.854 90 13.051v63.898C90 84.146 84.146 90 76.949 90zM13.051 2C6.958 2 2 6.958 2 13.051v63.898C2 83.043 6.958 88 13.051 88h63.898C83.043 88 88 83.043 88 76.949V13.051C88 6.958 83.043 2 76.949 2H13.051z" style="stroke:none;stroke-width:1;stroke-dasharray:none;stroke-linecap:butt;stroke-linejoin:miter;stroke-miterlimit:10;opacity:1" transform="translate(1.964 1.964) scale(2.8008)"/></g></g></svg>